<svg xmlns="http://www.w3.org/2000/svg" fill="white" viewBox="0 0 24 24">
  <path d="M12 0C5.37 0 0 5.37 0 12c0 5.3 3.438 9.8 8.205 11.385.6.113.82-.258.82-.577v-2.234c-3.338.726-4.033-1.416-4.033-1.416-.546-1.388-1.333-1.757-1.333-1.757-1.089-.745.083-.729.083-.729 1.205.085 1.838 1.236 1.838 1.236 1.07 1.834 2.807 1.304 3.492.997.108-.775.418-1.305.76-1.605-2.665-.3-5.467-1.333-5.467-5.93 0-1.31.468-2.382 1.236-3.22-.124-.302-.535-1.52.117-3.176 0 0 1.008-.322 3.3 1.23a11.47 11.47 0 0 1 3-.405c1.02.005 2.045.138 3 .405 2.29-1.552 3.296-1.23 3.296-1.23.653 1.656.242 2.874.118 3.176.77.838 1.236 1.91 1.236 3.22 0 4.61-2.807 5.625-5.48 5.92.43.372.823 1.103.823 2.222v3.293c0 .32.218.694.825.576C20.565 21.796 24 17.297 24 12c0-6.63-5.37-12-12-12z"/>
</svg>